<mxfile host="app.diagrams.net" agent="Mozilla/5.0 (Windows NT 10.0; Win64; x64) AppleWebKit/537.36 (KHTML, like Gecko) Chrome/137.0.0.0 Safari/537.36" version="27.1.4">
  <diagram id="C5RBs43oDa-KdzZeNtuy" name="Page-1">
    <mxGraphModel grid="0" page="0" gridSize="10" guides="1" tooltips="1" connect="1" arrows="1" fold="1" pageScale="1" pageWidth="827" pageHeight="1169" math="0" shadow="0">
      <root>
        <mxCell id="WIyWlLk6GJQsqaUBKTNV-0" />
        <mxCell id="WIyWlLk6GJQsqaUBKTNV-1" parent="WIyWlLk6GJQsqaUBKTNV-0" />
        <mxCell id="WIyWlLk6GJQsqaUBKTNV-2" value="" style="rounded=0;html=1;jettySize=auto;orthogonalLoop=1;fontSize=11;endArrow=block;endFill=0;endSize=8;strokeWidth=1;shadow=0;labelBackgroundColor=none;edgeStyle=orthogonalEdgeStyle;entryX=0.5;entryY=0;entryDx=0;entryDy=0;" edge="1" parent="WIyWlLk6GJQsqaUBKTNV-1" source="WIyWlLk6GJQsqaUBKTNV-3" target="WIyWlLk6GJQsqaUBKTNV-7">
          <mxGeometry relative="1" as="geometry">
            <mxPoint x="220" y="170" as="targetPoint" />
          </mxGeometry>
        </mxCell>
        <mxCell id="WIyWlLk6GJQsqaUBKTNV-3" value="Inicio" style="rounded=1;whiteSpace=wrap;html=1;fontSize=12;glass=0;strokeWidth=1;shadow=0;" vertex="1" parent="WIyWlLk6GJQsqaUBKTNV-1">
          <mxGeometry x="160" y="80" width="120" height="40" as="geometry" />
        </mxCell>
        <mxCell id="WIyWlLk6GJQsqaUBKTNV-4" value="Yes" style="rounded=0;html=1;jettySize=auto;orthogonalLoop=1;fontSize=11;endArrow=block;endFill=0;endSize=8;strokeWidth=1;shadow=0;labelBackgroundColor=none;edgeStyle=orthogonalEdgeStyle;exitX=0.5;exitY=1;exitDx=0;exitDy=0;" edge="1" parent="WIyWlLk6GJQsqaUBKTNV-1" source="WIyWlLk6GJQsqaUBKTNV-7" target="WIyWlLk6GJQsqaUBKTNV-10">
          <mxGeometry x="1" y="104" relative="1" as="geometry">
            <mxPoint x="-89" y="103" as="offset" />
            <mxPoint x="220" y="250" as="sourcePoint" />
          </mxGeometry>
        </mxCell>
        <mxCell id="WIyWlLk6GJQsqaUBKTNV-7" value="Pantalla login" style="rounded=1;whiteSpace=wrap;html=1;fontSize=12;glass=0;strokeWidth=1;shadow=0;" vertex="1" parent="WIyWlLk6GJQsqaUBKTNV-1">
          <mxGeometry x="160" y="180" width="120" height="40" as="geometry" />
        </mxCell>
        <mxCell id="WIyWlLk6GJQsqaUBKTNV-8" value="" style="rounded=0;html=1;jettySize=auto;orthogonalLoop=1;fontSize=11;endArrow=block;endFill=0;endSize=8;strokeWidth=1;shadow=0;labelBackgroundColor=none;edgeStyle=orthogonalEdgeStyle;" edge="1" parent="WIyWlLk6GJQsqaUBKTNV-1" source="WIyWlLk6GJQsqaUBKTNV-10">
          <mxGeometry x="0.3" y="104" relative="1" as="geometry">
            <mxPoint as="offset" />
            <mxPoint x="220" y="430" as="targetPoint" />
          </mxGeometry>
        </mxCell>
        <mxCell id="WIyWlLk6GJQsqaUBKTNV-9" value="No" style="edgeStyle=orthogonalEdgeStyle;rounded=0;html=1;jettySize=auto;orthogonalLoop=1;fontSize=11;endArrow=block;endFill=0;endSize=8;strokeWidth=1;shadow=0;labelBackgroundColor=none;entryX=1;entryY=0.5;entryDx=0;entryDy=0;" edge="1" parent="WIyWlLk6GJQsqaUBKTNV-1" source="WIyWlLk6GJQsqaUBKTNV-10" target="WIyWlLk6GJQsqaUBKTNV-7">
          <mxGeometry y="10" relative="1" as="geometry">
            <mxPoint as="offset" />
            <mxPoint x="356" y="325.02857142857147" as="targetPoint" />
            <Array as="points">
              <mxPoint x="312" y="330" />
              <mxPoint x="312" y="200" />
            </Array>
          </mxGeometry>
        </mxCell>
        <mxCell id="WIyWlLk6GJQsqaUBKTNV-10" value="Usuario valido?" style="rhombus;whiteSpace=wrap;html=1;shadow=0;fontFamily=Helvetica;fontSize=12;align=center;strokeWidth=1;spacing=6;spacingTop=-4;" vertex="1" parent="WIyWlLk6GJQsqaUBKTNV-1">
          <mxGeometry x="170" y="290" width="100" height="80" as="geometry" />
        </mxCell>
        <mxCell id="lwDV_UlZ-yNqxNRpLu6u-0" value="Obtener rol usuario" style="rhombus;whiteSpace=wrap;html=1;shadow=0;fontFamily=Helvetica;fontSize=12;align=center;strokeWidth=1;spacing=6;spacingTop=-4;" vertex="1" parent="WIyWlLk6GJQsqaUBKTNV-1">
          <mxGeometry x="170" y="430" width="100" height="80" as="geometry" />
        </mxCell>
        <mxCell id="lwDV_UlZ-yNqxNRpLu6u-1" value="Dashboard cliente" style="rounded=0;whiteSpace=wrap;html=1;" vertex="1" parent="WIyWlLk6GJQsqaUBKTNV-1">
          <mxGeometry x="-108" y="601" width="94" height="53" as="geometry" />
        </mxCell>
        <mxCell id="lwDV_UlZ-yNqxNRpLu6u-2" value="Dashboard-Admin" style="rounded=0;whiteSpace=wrap;html=1;" vertex="1" parent="WIyWlLk6GJQsqaUBKTNV-1">
          <mxGeometry x="478" y="594" width="120" height="60" as="geometry" />
        </mxCell>
        <mxCell id="lwDV_UlZ-yNqxNRpLu6u-5" value="Dashboard-Entrenador" style="rounded=0;whiteSpace=wrap;html=1;" vertex="1" parent="WIyWlLk6GJQsqaUBKTNV-1">
          <mxGeometry x="156" y="589" width="128" height="65" as="geometry" />
        </mxCell>
        <object label="" id="lwDV_UlZ-yNqxNRpLu6u-6">
          <mxCell style="rounded=0;html=1;jettySize=auto;orthogonalLoop=1;fontSize=11;endArrow=block;endFill=0;endSize=8;strokeWidth=1;shadow=0;labelBackgroundColor=none;edgeStyle=orthogonalEdgeStyle;exitX=0.5;exitY=1;exitDx=0;exitDy=0;" edge="1" parent="WIyWlLk6GJQsqaUBKTNV-1" source="lwDV_UlZ-yNqxNRpLu6u-0" target="lwDV_UlZ-yNqxNRpLu6u-5">
            <mxGeometry x="0.3" y="104" relative="1" as="geometry">
              <mxPoint as="offset" />
              <mxPoint x="316" y="397" as="sourcePoint" />
              <mxPoint x="316" y="457" as="targetPoint" />
            </mxGeometry>
          </mxCell>
        </object>
        <mxCell id="lwDV_UlZ-yNqxNRpLu6u-7" value="Entrenador" style="text;html=1;align=center;verticalAlign=middle;resizable=0;points=[];autosize=1;strokeColor=none;fillColor=none;" vertex="1" parent="WIyWlLk6GJQsqaUBKTNV-1">
          <mxGeometry x="221" y="523" width="77" height="26" as="geometry" />
        </mxCell>
        <object label="" id="lwDV_UlZ-yNqxNRpLu6u-8">
          <mxCell style="rounded=0;html=1;jettySize=auto;orthogonalLoop=1;fontSize=11;endArrow=block;endFill=0;endSize=8;strokeWidth=1;shadow=0;labelBackgroundColor=none;edgeStyle=orthogonalEdgeStyle;exitX=1;exitY=0.5;exitDx=0;exitDy=0;entryX=0.5;entryY=0;entryDx=0;entryDy=0;" edge="1" parent="WIyWlLk6GJQsqaUBKTNV-1" source="lwDV_UlZ-yNqxNRpLu6u-0" target="lwDV_UlZ-yNqxNRpLu6u-2">
            <mxGeometry x="0.3" y="104" relative="1" as="geometry">
              <mxPoint as="offset" />
              <mxPoint x="425" y="507" as="sourcePoint" />
              <mxPoint x="425" y="618" as="targetPoint" />
            </mxGeometry>
          </mxCell>
        </object>
        <mxCell id="lwDV_UlZ-yNqxNRpLu6u-9" value="Administrador" style="text;html=1;align=center;verticalAlign=middle;resizable=0;points=[];autosize=1;strokeColor=none;fillColor=none;" vertex="1" parent="WIyWlLk6GJQsqaUBKTNV-1">
          <mxGeometry x="544" y="525.5" width="92" height="26" as="geometry" />
        </mxCell>
        <object label="" id="lwDV_UlZ-yNqxNRpLu6u-10">
          <mxCell style="rounded=0;html=1;jettySize=auto;orthogonalLoop=1;fontSize=11;endArrow=block;endFill=0;endSize=8;strokeWidth=1;shadow=0;labelBackgroundColor=none;edgeStyle=orthogonalEdgeStyle;exitX=0;exitY=0.5;exitDx=0;exitDy=0;" edge="1" parent="WIyWlLk6GJQsqaUBKTNV-1" source="lwDV_UlZ-yNqxNRpLu6u-0" target="lwDV_UlZ-yNqxNRpLu6u-1">
            <mxGeometry x="0.3" y="104" relative="1" as="geometry">
              <mxPoint as="offset" />
              <mxPoint x="136" y="551" as="sourcePoint" />
              <mxPoint x="136" y="662" as="targetPoint" />
            </mxGeometry>
          </mxCell>
        </object>
        <mxCell id="lwDV_UlZ-yNqxNRpLu6u-11" value="Cliente" style="text;html=1;align=center;verticalAlign=middle;resizable=0;points=[];autosize=1;strokeColor=none;fillColor=none;" vertex="1" parent="WIyWlLk6GJQsqaUBKTNV-1">
          <mxGeometry x="-60" y="535" width="55" height="26" as="geometry" />
        </mxCell>
        <mxCell id="lwDV_UlZ-yNqxNRpLu6u-12" value="" style="endArrow=classic;html=1;rounded=0;exitX=0.5;exitY=1;exitDx=0;exitDy=0;entryX=0.5;entryY=0;entryDx=0;entryDy=0;" edge="1" parent="WIyWlLk6GJQsqaUBKTNV-1" source="lwDV_UlZ-yNqxNRpLu6u-1" target="lwDV_UlZ-yNqxNRpLu6u-13">
          <mxGeometry width="50" height="50" relative="1" as="geometry">
            <mxPoint x="210" y="488" as="sourcePoint" />
            <mxPoint x="-61" y="712" as="targetPoint" />
          </mxGeometry>
        </mxCell>
        <mxCell id="lwDV_UlZ-yNqxNRpLu6u-13" value="Panel cliente" style="rounded=0;whiteSpace=wrap;html=1;" vertex="1" parent="WIyWlLk6GJQsqaUBKTNV-1">
          <mxGeometry x="-51" y="709" width="120" height="60" as="geometry" />
        </mxCell>
        <mxCell id="lwDV_UlZ-yNqxNRpLu6u-14" value="" style="endArrow=classic;html=1;rounded=0;exitX=0.5;exitY=1;exitDx=0;exitDy=0;entryX=0.5;entryY=0;entryDx=0;entryDy=0;" edge="1" parent="WIyWlLk6GJQsqaUBKTNV-1" source="lwDV_UlZ-yNqxNRpLu6u-1" target="lwDV_UlZ-yNqxNRpLu6u-15">
          <mxGeometry width="50" height="50" relative="1" as="geometry">
            <mxPoint x="20" y="748" as="sourcePoint" />
            <mxPoint x="20" y="806" as="targetPoint" />
          </mxGeometry>
        </mxCell>
        <mxCell id="lwDV_UlZ-yNqxNRpLu6u-15" value="Cerrar SesiÃ³n" style="rounded=0;whiteSpace=wrap;html=1;" vertex="1" parent="WIyWlLk6GJQsqaUBKTNV-1">
          <mxGeometry x="-191" y="709" width="120" height="60" as="geometry" />
        </mxCell>
        <mxCell id="lwDV_UlZ-yNqxNRpLu6u-16" value="" style="endArrow=classic;html=1;rounded=0;exitX=0.5;exitY=1;exitDx=0;exitDy=0;entryX=0.5;entryY=0;entryDx=0;entryDy=0;" edge="1" parent="WIyWlLk6GJQsqaUBKTNV-1" target="lwDV_UlZ-yNqxNRpLu6u-17">
          <mxGeometry width="50" height="50" relative="1" as="geometry">
            <mxPoint x="220" y="654" as="sourcePoint" />
            <mxPoint x="220" y="712" as="targetPoint" />
          </mxGeometry>
        </mxCell>
        <mxCell id="lwDV_UlZ-yNqxNRpLu6u-17" value="Panel entrenador" style="rounded=0;whiteSpace=wrap;html=1;" vertex="1" parent="WIyWlLk6GJQsqaUBKTNV-1">
          <mxGeometry x="230" y="709" width="120" height="60" as="geometry" />
        </mxCell>
        <mxCell id="lwDV_UlZ-yNqxNRpLu6u-18" value="" style="endArrow=classic;html=1;rounded=0;exitX=0.5;exitY=1;exitDx=0;exitDy=0;entryX=0.5;entryY=0;entryDx=0;entryDy=0;" edge="1" parent="WIyWlLk6GJQsqaUBKTNV-1" target="lwDV_UlZ-yNqxNRpLu6u-19">
          <mxGeometry width="50" height="50" relative="1" as="geometry">
            <mxPoint x="220" y="654" as="sourcePoint" />
            <mxPoint x="301" y="806" as="targetPoint" />
          </mxGeometry>
        </mxCell>
        <mxCell id="lwDV_UlZ-yNqxNRpLu6u-19" value="Cerrar SesiÃ³n" style="rounded=0;whiteSpace=wrap;html=1;" vertex="1" parent="WIyWlLk6GJQsqaUBKTNV-1">
          <mxGeometry x="90" y="709" width="120" height="60" as="geometry" />
        </mxCell>
        <mxCell id="lwDV_UlZ-yNqxNRpLu6u-20" value="" style="endArrow=classic;html=1;rounded=0;exitX=0.5;exitY=1;exitDx=0;exitDy=0;entryX=0.5;entryY=0;entryDx=0;entryDy=0;" edge="1" parent="WIyWlLk6GJQsqaUBKTNV-1" target="lwDV_UlZ-yNqxNRpLu6u-21">
          <mxGeometry width="50" height="50" relative="1" as="geometry">
            <mxPoint x="539" y="654" as="sourcePoint" />
            <mxPoint x="539" y="712" as="targetPoint" />
          </mxGeometry>
        </mxCell>
        <mxCell id="lwDV_UlZ-yNqxNRpLu6u-21" value="Panel administrador" style="rounded=0;whiteSpace=wrap;html=1;" vertex="1" parent="WIyWlLk6GJQsqaUBKTNV-1">
          <mxGeometry x="549" y="709" width="120" height="60" as="geometry" />
        </mxCell>
        <mxCell id="lwDV_UlZ-yNqxNRpLu6u-22" value="" style="endArrow=classic;html=1;rounded=0;exitX=0.5;exitY=1;exitDx=0;exitDy=0;entryX=0.5;entryY=0;entryDx=0;entryDy=0;" edge="1" parent="WIyWlLk6GJQsqaUBKTNV-1" target="lwDV_UlZ-yNqxNRpLu6u-23">
          <mxGeometry width="50" height="50" relative="1" as="geometry">
            <mxPoint x="539" y="654" as="sourcePoint" />
            <mxPoint x="620" y="806" as="targetPoint" />
          </mxGeometry>
        </mxCell>
        <mxCell id="lwDV_UlZ-yNqxNRpLu6u-23" value="Cerrar SesiÃ³n" style="rounded=0;whiteSpace=wrap;html=1;" vertex="1" parent="WIyWlLk6GJQsqaUBKTNV-1">
          <mxGeometry x="409" y="709" width="120" height="60" as="geometry" />
        </mxCell>
        <mxCell id="lwDV_UlZ-yNqxNRpLu6u-24" value="" style="endArrow=classic;html=1;rounded=0;edgeStyle=orthogonalEdgeStyle;" edge="1" parent="WIyWlLk6GJQsqaUBKTNV-1" source="lwDV_UlZ-yNqxNRpLu6u-23" target="WIyWlLk6GJQsqaUBKTNV-3">
          <mxGeometry width="50" height="50" relative="1" as="geometry">
            <mxPoint x="469" y="774" as="sourcePoint" />
            <mxPoint x="280" y="73" as="targetPoint" />
            <Array as="points">
              <mxPoint x="469" y="813" />
              <mxPoint x="712" y="813" />
              <mxPoint x="712" y="98" />
            </Array>
          </mxGeometry>
        </mxCell>
        <mxCell id="lwDV_UlZ-yNqxNRpLu6u-25" value="" style="endArrow=classic;html=1;rounded=0;exitX=0.5;exitY=1;exitDx=0;exitDy=0;edgeStyle=orthogonalEdgeStyle;" edge="1" parent="WIyWlLk6GJQsqaUBKTNV-1" source="lwDV_UlZ-yNqxNRpLu6u-19" target="WIyWlLk6GJQsqaUBKTNV-3">
          <mxGeometry width="50" height="50" relative="1" as="geometry">
            <mxPoint x="152" y="787" as="sourcePoint" />
            <mxPoint x="218" y="84" as="targetPoint" />
            <Array as="points">
              <mxPoint x="152" y="769" />
              <mxPoint x="152" y="852" />
              <mxPoint x="796" y="852" />
              <mxPoint x="796" y="17" />
              <mxPoint x="218" y="17" />
            </Array>
          </mxGeometry>
        </mxCell>
        <mxCell id="lwDV_UlZ-yNqxNRpLu6u-27" value="" style="endArrow=classic;html=1;rounded=0;edgeStyle=orthogonalEdgeStyle;" edge="1" parent="WIyWlLk6GJQsqaUBKTNV-1" source="lwDV_UlZ-yNqxNRpLu6u-15" target="WIyWlLk6GJQsqaUBKTNV-3">
          <mxGeometry width="50" height="50" relative="1" as="geometry">
            <mxPoint x="151" y="1574" as="sourcePoint" />
            <mxPoint x="219" y="885" as="targetPoint" />
            <Array as="points">
              <mxPoint x="-233" y="743" />
              <mxPoint x="-233" y="100" />
            </Array>
          </mxGeometry>
        </mxCell>
        <mxCell id="lwDV_UlZ-yNqxNRpLu6u-29" value="Login" style="rounded=1;whiteSpace=wrap;html=1;fontSize=12;glass=0;strokeWidth=1;shadow=0;" vertex="1" parent="WIyWlLk6GJQsqaUBKTNV-1">
          <mxGeometry x="41.94" y="991" width="120" height="40" as="geometry" />
        </mxCell>
        <mxCell id="lwDV_UlZ-yNqxNRpLu6u-34" value="Dashboard-Entrenador" style="rounded=0;whiteSpace=wrap;html=1;" vertex="1" parent="WIyWlLk6GJQsqaUBKTNV-1">
          <mxGeometry x="37.94" y="1111" width="128" height="65" as="geometry" />
        </mxCell>
        <object label="" id="lwDV_UlZ-yNqxNRpLu6u-35">
          <mxCell style="rounded=0;html=1;jettySize=auto;orthogonalLoop=1;fontSize=11;endArrow=block;endFill=0;endSize=8;strokeWidth=1;shadow=0;labelBackgroundColor=none;edgeStyle=orthogonalEdgeStyle;exitX=0.5;exitY=1;exitDx=0;exitDy=0;" edge="1" parent="WIyWlLk6GJQsqaUBKTNV-1" source="lwDV_UlZ-yNqxNRpLu6u-29" target="lwDV_UlZ-yNqxNRpLu6u-34">
            <mxGeometry x="0.3" y="104" relative="1" as="geometry">
              <mxPoint as="offset" />
              <mxPoint x="101.94" y="1321" as="sourcePoint" />
              <mxPoint x="197.94" y="1268" as="targetPoint" />
            </mxGeometry>
          </mxCell>
        </object>
        <mxCell id="lwDV_UlZ-yNqxNRpLu6u-39" value="" style="endArrow=classic;html=1;rounded=0;edgeStyle=orthogonalEdgeStyle;" edge="1" parent="WIyWlLk6GJQsqaUBKTNV-1" source="lwDV_UlZ-yNqxNRpLu6u-34" target="lwDV_UlZ-yNqxNRpLu6u-40">
          <mxGeometry width="50" height="50" relative="1" as="geometry">
            <mxPoint x="101.94" y="1176" as="sourcePoint" />
            <mxPoint x="182.94" y="1328" as="targetPoint" />
            <Array as="points" />
          </mxGeometry>
        </mxCell>
        <mxCell id="lwDV_UlZ-yNqxNRpLu6u-40" value="Cerrar SesiÃ³n" style="rounded=0;whiteSpace=wrap;html=1;" vertex="1" parent="WIyWlLk6GJQsqaUBKTNV-1">
          <mxGeometry x="-188.06" y="1113.5" width="120" height="60" as="geometry" />
        </mxCell>
        <mxCell id="lwDV_UlZ-yNqxNRpLu6u-41" value="" style="endArrow=classic;html=1;rounded=0;edgeStyle=orthogonalEdgeStyle;" edge="1" parent="WIyWlLk6GJQsqaUBKTNV-1" source="lwDV_UlZ-yNqxNRpLu6u-40" target="lwDV_UlZ-yNqxNRpLu6u-29">
          <mxGeometry width="50" height="50" relative="1" as="geometry">
            <mxPoint x="146.94" y="1219" as="sourcePoint" />
            <mxPoint x="-1.0600000000000023" y="1267" as="targetPoint" />
            <Array as="points">
              <mxPoint x="-146.06" y="1011" />
            </Array>
          </mxGeometry>
        </mxCell>
        <mxCell id="lwDV_UlZ-yNqxNRpLu6u-42" value="" style="endArrow=classic;html=1;rounded=0;exitX=1;exitY=0.5;exitDx=0;exitDy=0;" edge="1" parent="WIyWlLk6GJQsqaUBKTNV-1" source="lwDV_UlZ-yNqxNRpLu6u-34" target="lwDV_UlZ-yNqxNRpLu6u-43">
          <mxGeometry width="50" height="50" relative="1" as="geometry">
            <mxPoint x="283.94" y="1126" as="sourcePoint" />
            <mxPoint x="283.94" y="1184" as="targetPoint" />
          </mxGeometry>
        </mxCell>
        <mxCell id="lwDV_UlZ-yNqxNRpLu6u-43" value="Ver rutinas" style="rounded=0;whiteSpace=wrap;html=1;" vertex="1" parent="WIyWlLk6GJQsqaUBKTNV-1">
          <mxGeometry x="218.94" y="1113.5" width="120" height="60" as="geometry" />
        </mxCell>
        <mxCell id="lwDV_UlZ-yNqxNRpLu6u-44" value="Editar" style="rounded=1;whiteSpace=wrap;html=1;" vertex="1" parent="WIyWlLk6GJQsqaUBKTNV-1">
          <mxGeometry x="400.94" y="1039" width="120" height="60" as="geometry" />
        </mxCell>
        <mxCell id="lwDV_UlZ-yNqxNRpLu6u-45" value="Volver" style="rounded=1;whiteSpace=wrap;html=1;" vertex="1" parent="WIyWlLk6GJQsqaUBKTNV-1">
          <mxGeometry x="213" y="1283" width="120" height="60" as="geometry" />
        </mxCell>
        <mxCell id="lwDV_UlZ-yNqxNRpLu6u-46" value="" style="endArrow=classic;html=1;rounded=0;entryX=0.008;entryY=0.58;entryDx=0;entryDy=0;entryPerimeter=0;" edge="1" parent="WIyWlLk6GJQsqaUBKTNV-1" source="lwDV_UlZ-yNqxNRpLu6u-43" target="lwDV_UlZ-yNqxNRpLu6u-44">
          <mxGeometry width="50" height="50" relative="1" as="geometry">
            <mxPoint x="407.94" y="1181" as="sourcePoint" />
            <mxPoint x="483.94" y="1181" as="targetPoint" />
          </mxGeometry>
        </mxCell>
        <mxCell id="lwDV_UlZ-yNqxNRpLu6u-47" value="" style="endArrow=classic;html=1;rounded=0;exitX=0.5;exitY=1;exitDx=0;exitDy=0;" edge="1" parent="WIyWlLk6GJQsqaUBKTNV-1" source="lwDV_UlZ-yNqxNRpLu6u-43" target="lwDV_UlZ-yNqxNRpLu6u-45">
          <mxGeometry width="50" height="50" relative="1" as="geometry">
            <mxPoint x="416.94" y="1191" as="sourcePoint" />
            <mxPoint x="476.94" y="1167" as="targetPoint" />
          </mxGeometry>
        </mxCell>
        <mxCell id="lwDV_UlZ-yNqxNRpLu6u-53" value="" style="endArrow=classic;html=1;rounded=0;exitX=1;exitY=0.5;exitDx=0;exitDy=0;entryX=0.642;entryY=0.083;entryDx=0;entryDy=0;edgeStyle=orthogonalEdgeStyle;entryPerimeter=0;" edge="1" parent="WIyWlLk6GJQsqaUBKTNV-1" source="lwDV_UlZ-yNqxNRpLu6u-45" target="lwDV_UlZ-yNqxNRpLu6u-34">
          <mxGeometry width="50" height="50" relative="1" as="geometry">
            <mxPoint x="503.94" y="1204" as="sourcePoint" />
            <mxPoint x="556.94" y="1225" as="targetPoint" />
            <Array as="points">
              <mxPoint x="674" y="1326" />
              <mxPoint x="674" y="1018" />
              <mxPoint x="195" y="1018" />
              <mxPoint x="195" y="1068" />
              <mxPoint x="120" y="1068" />
            </Array>
          </mxGeometry>
        </mxCell>
        <mxCell id="lwDV_UlZ-yNqxNRpLu6u-55" value="Eliminar" style="rounded=1;whiteSpace=wrap;html=1;" vertex="1" parent="WIyWlLk6GJQsqaUBKTNV-1">
          <mxGeometry x="510.94" y="1185" width="120" height="60" as="geometry" />
        </mxCell>
        <mxCell id="lwDV_UlZ-yNqxNRpLu6u-56" value="Asignar" style="rounded=1;whiteSpace=wrap;html=1;" vertex="1" parent="WIyWlLk6GJQsqaUBKTNV-1">
          <mxGeometry x="517.94" y="1104" width="120" height="60" as="geometry" />
        </mxCell>
        <mxCell id="lwDV_UlZ-yNqxNRpLu6u-57" value="Crear" style="rounded=1;whiteSpace=wrap;html=1;" vertex="1" parent="WIyWlLk6GJQsqaUBKTNV-1">
          <mxGeometry x="365.94" y="1213" width="120" height="60" as="geometry" />
        </mxCell>
        <mxCell id="lwDV_UlZ-yNqxNRpLu6u-58" value="" style="endArrow=classic;html=1;rounded=0;entryX=0;entryY=0.25;entryDx=0;entryDy=0;exitX=0.983;exitY=0.417;exitDx=0;exitDy=0;exitPerimeter=0;" edge="1" parent="WIyWlLk6GJQsqaUBKTNV-1" source="lwDV_UlZ-yNqxNRpLu6u-43" target="lwDV_UlZ-yNqxNRpLu6u-56">
          <mxGeometry width="50" height="50" relative="1" as="geometry">
            <mxPoint x="440.94" y="1189" as="sourcePoint" />
            <mxPoint x="510.94" y="1149" as="targetPoint" />
          </mxGeometry>
        </mxCell>
        <mxCell id="lwDV_UlZ-yNqxNRpLu6u-59" value="" style="endArrow=classic;html=1;rounded=0;exitX=1;exitY=0.5;exitDx=0;exitDy=0;" edge="1" parent="WIyWlLk6GJQsqaUBKTNV-1" source="lwDV_UlZ-yNqxNRpLu6u-43" target="lwDV_UlZ-yNqxNRpLu6u-55">
          <mxGeometry width="50" height="50" relative="1" as="geometry">
            <mxPoint x="445.94" y="1133" as="sourcePoint" />
            <mxPoint x="626.94" y="1113" as="targetPoint" />
          </mxGeometry>
        </mxCell>
        <mxCell id="lwDV_UlZ-yNqxNRpLu6u-60" value="" style="endArrow=classic;html=1;rounded=0;exitX=0.867;exitY=0.972;exitDx=0;exitDy=0;exitPerimeter=0;" edge="1" parent="WIyWlLk6GJQsqaUBKTNV-1" source="lwDV_UlZ-yNqxNRpLu6u-43" target="lwDV_UlZ-yNqxNRpLu6u-57">
          <mxGeometry width="50" height="50" relative="1" as="geometry">
            <mxPoint x="429.94" y="1210" as="sourcePoint" />
            <mxPoint x="610.94" y="1190" as="targetPoint" />
          </mxGeometry>
        </mxCell>
        <mxCell id="lwDV_UlZ-yNqxNRpLu6u-65" value="Login" style="rounded=1;whiteSpace=wrap;html=1;fontSize=12;glass=0;strokeWidth=1;shadow=0;" vertex="1" parent="WIyWlLk6GJQsqaUBKTNV-1">
          <mxGeometry x="1374" y="30.94000000000011" width="120" height="40" as="geometry" />
        </mxCell>
        <mxCell id="lwDV_UlZ-yNqxNRpLu6u-66" value="Dashboard-Admin" style="rounded=0;whiteSpace=wrap;html=1;" vertex="1" parent="WIyWlLk6GJQsqaUBKTNV-1">
          <mxGeometry x="1370" y="150.9400000000001" width="128" height="65" as="geometry" />
        </mxCell>
        <object label="" id="lwDV_UlZ-yNqxNRpLu6u-67">
          <mxCell style="rounded=0;html=1;jettySize=auto;orthogonalLoop=1;fontSize=11;endArrow=block;endFill=0;endSize=8;strokeWidth=1;shadow=0;labelBackgroundColor=none;edgeStyle=orthogonalEdgeStyle;exitX=0.5;exitY=1;exitDx=0;exitDy=0;" edge="1" parent="WIyWlLk6GJQsqaUBKTNV-1" source="lwDV_UlZ-yNqxNRpLu6u-65" target="lwDV_UlZ-yNqxNRpLu6u-66">
            <mxGeometry x="0.3" y="104" relative="1" as="geometry">
              <mxPoint as="offset" />
              <mxPoint x="1434" y="360.9400000000001" as="sourcePoint" />
              <mxPoint x="1530" y="307.9400000000001" as="targetPoint" />
            </mxGeometry>
          </mxCell>
        </object>
        <mxCell id="lwDV_UlZ-yNqxNRpLu6u-68" value="" style="endArrow=classic;html=1;rounded=0;exitX=0.5;exitY=1;exitDx=0;exitDy=0;entryX=0.5;entryY=0;entryDx=0;entryDy=0;" edge="1" parent="WIyWlLk6GJQsqaUBKTNV-1" target="lwDV_UlZ-yNqxNRpLu6u-69">
          <mxGeometry width="50" height="50" relative="1" as="geometry">
            <mxPoint x="1434" y="215.9400000000001" as="sourcePoint" />
            <mxPoint x="1434" y="273.9400000000001" as="targetPoint" />
          </mxGeometry>
        </mxCell>
        <mxCell id="lwDV_UlZ-yNqxNRpLu6u-69" value="Ver usuarios" style="rounded=0;whiteSpace=wrap;html=1;" vertex="1" parent="WIyWlLk6GJQsqaUBKTNV-1">
          <mxGeometry x="1374" y="284.9400000000001" width="120" height="60" as="geometry" />
        </mxCell>
        <mxCell id="lwDV_UlZ-yNqxNRpLu6u-70" value="" style="endArrow=classic;html=1;rounded=0;edgeStyle=orthogonalEdgeStyle;" edge="1" parent="WIyWlLk6GJQsqaUBKTNV-1" source="lwDV_UlZ-yNqxNRpLu6u-66" target="lwDV_UlZ-yNqxNRpLu6u-71">
          <mxGeometry width="50" height="50" relative="1" as="geometry">
            <mxPoint x="1434" y="215.9400000000001" as="sourcePoint" />
            <mxPoint x="1515" y="367.9400000000001" as="targetPoint" />
            <Array as="points" />
          </mxGeometry>
        </mxCell>
        <mxCell id="lwDV_UlZ-yNqxNRpLu6u-71" value="Cerrar SesiÃ³n" style="rounded=0;whiteSpace=wrap;html=1;" vertex="1" parent="WIyWlLk6GJQsqaUBKTNV-1">
          <mxGeometry x="1144" y="153.4400000000001" width="120" height="60" as="geometry" />
        </mxCell>
        <mxCell id="lwDV_UlZ-yNqxNRpLu6u-72" value="" style="endArrow=classic;html=1;rounded=0;edgeStyle=orthogonalEdgeStyle;" edge="1" parent="WIyWlLk6GJQsqaUBKTNV-1" source="lwDV_UlZ-yNqxNRpLu6u-71" target="lwDV_UlZ-yNqxNRpLu6u-65">
          <mxGeometry width="50" height="50" relative="1" as="geometry">
            <mxPoint x="1479" y="258.9400000000001" as="sourcePoint" />
            <mxPoint x="1331" y="306.9400000000001" as="targetPoint" />
            <Array as="points">
              <mxPoint x="1186" y="50.94000000000011" />
            </Array>
          </mxGeometry>
        </mxCell>
        <mxCell id="lwDV_UlZ-yNqxNRpLu6u-73" value="" style="endArrow=classic;html=1;rounded=0;exitX=1;exitY=0.5;exitDx=0;exitDy=0;" edge="1" parent="WIyWlLk6GJQsqaUBKTNV-1" source="lwDV_UlZ-yNqxNRpLu6u-66" target="lwDV_UlZ-yNqxNRpLu6u-74">
          <mxGeometry width="50" height="50" relative="1" as="geometry">
            <mxPoint x="1616" y="165.9400000000001" as="sourcePoint" />
            <mxPoint x="1616" y="223.9400000000001" as="targetPoint" />
          </mxGeometry>
        </mxCell>
        <mxCell id="lwDV_UlZ-yNqxNRpLu6u-74" value="Ver Entrenadores" style="rounded=0;whiteSpace=wrap;html=1;" vertex="1" parent="WIyWlLk6GJQsqaUBKTNV-1">
          <mxGeometry x="1551" y="153.4400000000001" width="120" height="60" as="geometry" />
        </mxCell>
        <mxCell id="lwDV_UlZ-yNqxNRpLu6u-75" value="Editar" style="rounded=1;whiteSpace=wrap;html=1;" vertex="1" parent="WIyWlLk6GJQsqaUBKTNV-1">
          <mxGeometry x="1653" y="326.06" width="120" height="60" as="geometry" />
        </mxCell>
        <mxCell id="lwDV_UlZ-yNqxNRpLu6u-76" value="Volver" style="rounded=1;whiteSpace=wrap;html=1;" vertex="1" parent="WIyWlLk6GJQsqaUBKTNV-1">
          <mxGeometry x="1748" y="64.00000000000006" width="120" height="60" as="geometry" />
        </mxCell>
        <mxCell id="lwDV_UlZ-yNqxNRpLu6u-77" value="" style="endArrow=classic;html=1;rounded=0;entryX=0.008;entryY=0.58;entryDx=0;entryDy=0;entryPerimeter=0;" edge="1" parent="WIyWlLk6GJQsqaUBKTNV-1" source="lwDV_UlZ-yNqxNRpLu6u-74" target="lwDV_UlZ-yNqxNRpLu6u-75">
          <mxGeometry width="50" height="50" relative="1" as="geometry">
            <mxPoint x="1740" y="220.9400000000001" as="sourcePoint" />
            <mxPoint x="1816" y="220.9400000000001" as="targetPoint" />
          </mxGeometry>
        </mxCell>
        <mxCell id="lwDV_UlZ-yNqxNRpLu6u-78" value="" style="endArrow=classic;html=1;rounded=0;exitX=0.5;exitY=0;exitDx=0;exitDy=0;" edge="1" parent="WIyWlLk6GJQsqaUBKTNV-1" source="lwDV_UlZ-yNqxNRpLu6u-74" target="lwDV_UlZ-yNqxNRpLu6u-76">
          <mxGeometry width="50" height="50" relative="1" as="geometry">
            <mxPoint x="1749" y="230.9400000000001" as="sourcePoint" />
            <mxPoint x="1809" y="206.9400000000001" as="targetPoint" />
          </mxGeometry>
        </mxCell>
        <mxCell id="lwDV_UlZ-yNqxNRpLu6u-80" value="Volver" style="rounded=1;whiteSpace=wrap;html=1;" vertex="1" parent="WIyWlLk6GJQsqaUBKTNV-1">
          <mxGeometry x="1168" y="360.00000000000006" width="120" height="60" as="geometry" />
        </mxCell>
        <mxCell id="lwDV_UlZ-yNqxNRpLu6u-82" value="" style="endArrow=classic;html=1;rounded=0;exitX=0.368;exitY=0.995;exitDx=0;exitDy=0;exitPerimeter=0;" edge="1" parent="WIyWlLk6GJQsqaUBKTNV-1" source="lwDV_UlZ-yNqxNRpLu6u-69" target="lwDV_UlZ-yNqxNRpLu6u-80">
          <mxGeometry width="50" height="50" relative="1" as="geometry">
            <mxPoint x="1362" y="488.9400000000001" as="sourcePoint" />
            <mxPoint x="1477" y="501.9400000000001" as="targetPoint" />
          </mxGeometry>
        </mxCell>
        <mxCell id="lwDV_UlZ-yNqxNRpLu6u-83" value="" style="endArrow=classic;html=1;rounded=0;edgeStyle=orthogonalEdgeStyle;entryX=0.75;entryY=0;entryDx=0;entryDy=0;" edge="1" parent="WIyWlLk6GJQsqaUBKTNV-1" source="lwDV_UlZ-yNqxNRpLu6u-76" target="lwDV_UlZ-yNqxNRpLu6u-66">
          <mxGeometry width="50" height="50" relative="1" as="geometry">
            <mxPoint x="1859" y="-24.999999999999943" as="sourcePoint" />
            <mxPoint x="1504" y="159.9400000000001" as="targetPoint" />
            <Array as="points">
              <mxPoint x="1824" y="26.000000000000057" />
              <mxPoint x="1578" y="26.000000000000057" />
              <mxPoint x="1578" y="110.00000000000006" />
              <mxPoint x="1466" y="110.00000000000006" />
            </Array>
          </mxGeometry>
        </mxCell>
        <mxCell id="lwDV_UlZ-yNqxNRpLu6u-84" value="" style="endArrow=classic;html=1;rounded=0;entryX=0.25;entryY=1;entryDx=0;entryDy=0;edgeStyle=orthogonalEdgeStyle;exitX=0.5;exitY=0;exitDx=0;exitDy=0;" edge="1" parent="WIyWlLk6GJQsqaUBKTNV-1" source="lwDV_UlZ-yNqxNRpLu6u-80" target="lwDV_UlZ-yNqxNRpLu6u-66">
          <mxGeometry width="50" height="50" relative="1" as="geometry">
            <mxPoint x="1915" y="556.94" as="sourcePoint" />
            <mxPoint x="1546" y="374.9400000000001" as="targetPoint" />
            <Array as="points">
              <mxPoint x="1225" y="360.00000000000006" />
              <mxPoint x="1225" y="249.00000000000006" />
              <mxPoint x="1402" y="249.00000000000006" />
            </Array>
          </mxGeometry>
        </mxCell>
        <mxCell id="lwDV_UlZ-yNqxNRpLu6u-85" value="Eliminar" style="rounded=1;whiteSpace=wrap;html=1;" vertex="1" parent="WIyWlLk6GJQsqaUBKTNV-1">
          <mxGeometry x="1827" y="173.00000000000006" width="120" height="60" as="geometry" />
        </mxCell>
        <mxCell id="lwDV_UlZ-yNqxNRpLu6u-87" value="Crear" style="rounded=1;whiteSpace=wrap;html=1;" vertex="1" parent="WIyWlLk6GJQsqaUBKTNV-1">
          <mxGeometry x="1776" y="266.06" width="120" height="60" as="geometry" />
        </mxCell>
        <mxCell id="lwDV_UlZ-yNqxNRpLu6u-89" value="" style="endArrow=classic;html=1;rounded=0;exitX=1;exitY=0.5;exitDx=0;exitDy=0;" edge="1" parent="WIyWlLk6GJQsqaUBKTNV-1" source="lwDV_UlZ-yNqxNRpLu6u-74" target="lwDV_UlZ-yNqxNRpLu6u-85">
          <mxGeometry width="50" height="50" relative="1" as="geometry">
            <mxPoint x="1778" y="172.9400000000001" as="sourcePoint" />
            <mxPoint x="1959" y="152.9400000000001" as="targetPoint" />
          </mxGeometry>
        </mxCell>
        <mxCell id="lwDV_UlZ-yNqxNRpLu6u-90" value="" style="endArrow=classic;html=1;rounded=0;exitX=0.867;exitY=0.972;exitDx=0;exitDy=0;exitPerimeter=0;" edge="1" parent="WIyWlLk6GJQsqaUBKTNV-1" source="lwDV_UlZ-yNqxNRpLu6u-74" target="lwDV_UlZ-yNqxNRpLu6u-87">
          <mxGeometry width="50" height="50" relative="1" as="geometry">
            <mxPoint x="1762" y="249.9400000000001" as="sourcePoint" />
            <mxPoint x="1943" y="229.9400000000001" as="targetPoint" />
          </mxGeometry>
        </mxCell>
        <mxCell id="lwDV_UlZ-yNqxNRpLu6u-93" value="Editar" style="rounded=1;whiteSpace=wrap;html=1;" vertex="1" parent="WIyWlLk6GJQsqaUBKTNV-1">
          <mxGeometry x="1533" y="411.00000000000006" width="120" height="60" as="geometry" />
        </mxCell>
        <mxCell id="lwDV_UlZ-yNqxNRpLu6u-94" value="" style="endArrow=classic;html=1;rounded=0;" edge="1" parent="WIyWlLk6GJQsqaUBKTNV-1" source="lwDV_UlZ-yNqxNRpLu6u-69" target="lwDV_UlZ-yNqxNRpLu6u-93">
          <mxGeometry width="50" height="50" relative="1" as="geometry">
            <mxPoint x="1365.94" y="548.06" as="sourcePoint" />
            <mxPoint x="1517.94" y="616" as="targetPoint" />
          </mxGeometry>
        </mxCell>
        <mxCell id="lwDV_UlZ-yNqxNRpLu6u-95" value="Eliminar" style="rounded=1;whiteSpace=wrap;html=1;" vertex="1" parent="WIyWlLk6GJQsqaUBKTNV-1">
          <mxGeometry x="1396.94" y="475.00000000000006" width="120" height="60" as="geometry" />
        </mxCell>
        <mxCell id="lwDV_UlZ-yNqxNRpLu6u-96" value="Crear" style="rounded=1;whiteSpace=wrap;html=1;" vertex="1" parent="WIyWlLk6GJQsqaUBKTNV-1">
          <mxGeometry x="1250.94" y="475.00000000000006" width="120" height="60" as="geometry" />
        </mxCell>
        <mxCell id="lwDV_UlZ-yNqxNRpLu6u-97" value="" style="endArrow=classic;html=1;rounded=0;" edge="1" parent="WIyWlLk6GJQsqaUBKTNV-1" source="lwDV_UlZ-yNqxNRpLu6u-69" target="lwDV_UlZ-yNqxNRpLu6u-95">
          <mxGeometry width="50" height="50" relative="1" as="geometry">
            <mxPoint x="1372.94" y="578.06" as="sourcePoint" />
            <mxPoint x="1660.94" y="548" as="targetPoint" />
          </mxGeometry>
        </mxCell>
        <mxCell id="lwDV_UlZ-yNqxNRpLu6u-98" value="" style="endArrow=classic;html=1;rounded=0;" edge="1" parent="WIyWlLk6GJQsqaUBKTNV-1" source="lwDV_UlZ-yNqxNRpLu6u-69" target="lwDV_UlZ-yNqxNRpLu6u-96">
          <mxGeometry width="50" height="50" relative="1" as="geometry">
            <mxPoint x="1356.94" y="607.06" as="sourcePoint" />
            <mxPoint x="1644.94" y="625" as="targetPoint" />
          </mxGeometry>
        </mxCell>
        <mxCell id="lwDV_UlZ-yNqxNRpLu6u-100" value="" style="endArrow=classic;html=1;rounded=0;entryX=0.5;entryY=0;entryDx=0;entryDy=0;exitX=0.591;exitY=0.968;exitDx=0;exitDy=0;exitPerimeter=0;" edge="1" parent="WIyWlLk6GJQsqaUBKTNV-1" source="lwDV_UlZ-yNqxNRpLu6u-34" target="lwDV_UlZ-yNqxNRpLu6u-101">
          <mxGeometry width="50" height="50" relative="1" as="geometry">
            <mxPoint x="112" y="1169" as="sourcePoint" />
            <mxPoint x="115" y="1317" as="targetPoint" />
          </mxGeometry>
        </mxCell>
        <mxCell id="lwDV_UlZ-yNqxNRpLu6u-101" value="Ver Ejercicios" style="rounded=0;whiteSpace=wrap;html=1;" vertex="1" parent="WIyWlLk6GJQsqaUBKTNV-1">
          <mxGeometry x="-145" y="1266" width="120" height="60" as="geometry" />
        </mxCell>
        <mxCell id="eSVJCQRRHsXEp4kIx0E7-1" style="edgeStyle=orthogonalEdgeStyle;rounded=0;orthogonalLoop=1;jettySize=auto;html=1;entryX=0;entryY=0.75;entryDx=0;entryDy=0;" edge="1" parent="WIyWlLk6GJQsqaUBKTNV-1" source="lwDV_UlZ-yNqxNRpLu6u-103" target="lwDV_UlZ-yNqxNRpLu6u-34">
          <mxGeometry relative="1" as="geometry">
            <Array as="points">
              <mxPoint x="-291" y="1222" />
              <mxPoint x="-97" y="1222" />
              <mxPoint x="-97" y="1192" />
              <mxPoint x="38" y="1192" />
            </Array>
          </mxGeometry>
        </mxCell>
        <mxCell id="lwDV_UlZ-yNqxNRpLu6u-103" value="Volver" style="rounded=1;whiteSpace=wrap;html=1;" vertex="1" parent="WIyWlLk6GJQsqaUBKTNV-1">
          <mxGeometry x="-351" y="1341.06" width="120" height="60" as="geometry" />
        </mxCell>
        <mxCell id="lwDV_UlZ-yNqxNRpLu6u-104" value="" style="endArrow=classic;html=1;rounded=0;exitX=0;exitY=1;exitDx=0;exitDy=0;" edge="1" parent="WIyWlLk6GJQsqaUBKTNV-1" source="lwDV_UlZ-yNqxNRpLu6u-101" target="lwDV_UlZ-yNqxNRpLu6u-103">
          <mxGeometry width="50" height="50" relative="1" as="geometry">
            <mxPoint x="-157" y="1470" as="sourcePoint" />
            <mxPoint x="-42" y="1483" as="targetPoint" />
          </mxGeometry>
        </mxCell>
        <mxCell id="lwDV_UlZ-yNqxNRpLu6u-106" value="Editar" style="rounded=1;whiteSpace=wrap;html=1;" vertex="1" parent="WIyWlLk6GJQsqaUBKTNV-1">
          <mxGeometry x="68.06" y="1338" width="120" height="60" as="geometry" />
        </mxCell>
        <mxCell id="lwDV_UlZ-yNqxNRpLu6u-107" value="" style="endArrow=classic;html=1;rounded=0;" edge="1" parent="WIyWlLk6GJQsqaUBKTNV-1" source="lwDV_UlZ-yNqxNRpLu6u-101" target="lwDV_UlZ-yNqxNRpLu6u-106">
          <mxGeometry width="50" height="50" relative="1" as="geometry">
            <mxPoint x="-153.06" y="1529.12" as="sourcePoint" />
            <mxPoint x="-1.0599999999999454" y="1597.06" as="targetPoint" />
          </mxGeometry>
        </mxCell>
        <mxCell id="lwDV_UlZ-yNqxNRpLu6u-108" value="Eliminar" style="rounded=1;whiteSpace=wrap;html=1;" vertex="1" parent="WIyWlLk6GJQsqaUBKTNV-1">
          <mxGeometry x="-68" y="1402" width="120" height="60" as="geometry" />
        </mxCell>
        <mxCell id="lwDV_UlZ-yNqxNRpLu6u-109" value="Crear" style="rounded=1;whiteSpace=wrap;html=1;" vertex="1" parent="WIyWlLk6GJQsqaUBKTNV-1">
          <mxGeometry x="-214" y="1402" width="120" height="60" as="geometry" />
        </mxCell>
        <mxCell id="lwDV_UlZ-yNqxNRpLu6u-110" value="" style="endArrow=classic;html=1;rounded=0;" edge="1" parent="WIyWlLk6GJQsqaUBKTNV-1" source="lwDV_UlZ-yNqxNRpLu6u-101" target="lwDV_UlZ-yNqxNRpLu6u-108">
          <mxGeometry width="50" height="50" relative="1" as="geometry">
            <mxPoint x="-146.06" y="1559.12" as="sourcePoint" />
            <mxPoint x="141.94000000000005" y="1529.06" as="targetPoint" />
          </mxGeometry>
        </mxCell>
        <mxCell id="lwDV_UlZ-yNqxNRpLu6u-111" value="" style="endArrow=classic;html=1;rounded=0;" edge="1" parent="WIyWlLk6GJQsqaUBKTNV-1" source="lwDV_UlZ-yNqxNRpLu6u-101" target="lwDV_UlZ-yNqxNRpLu6u-109">
          <mxGeometry width="50" height="50" relative="1" as="geometry">
            <mxPoint x="-162.06" y="1588.12" as="sourcePoint" />
            <mxPoint x="125.94000000000005" y="1606.06" as="targetPoint" />
          </mxGeometry>
        </mxCell>
        <mxCell id="lwDV_UlZ-yNqxNRpLu6u-112" value="Login" style="rounded=1;whiteSpace=wrap;html=1;fontSize=12;glass=0;strokeWidth=1;shadow=0;" vertex="1" parent="WIyWlLk6GJQsqaUBKTNV-1">
          <mxGeometry x="1334" y="868" width="120" height="40" as="geometry" />
        </mxCell>
        <mxCell id="lwDV_UlZ-yNqxNRpLu6u-113" value="Dashboard-Cliente" style="rounded=0;whiteSpace=wrap;html=1;" vertex="1" parent="WIyWlLk6GJQsqaUBKTNV-1">
          <mxGeometry x="1294" y="988" width="200" height="124" as="geometry" />
        </mxCell>
        <object label="" id="lwDV_UlZ-yNqxNRpLu6u-114">
          <mxCell style="rounded=0;html=1;jettySize=auto;orthogonalLoop=1;fontSize=11;endArrow=block;endFill=0;endSize=8;strokeWidth=1;shadow=0;labelBackgroundColor=none;edgeStyle=orthogonalEdgeStyle;exitX=0.5;exitY=1;exitDx=0;exitDy=0;" edge="1" parent="WIyWlLk6GJQsqaUBKTNV-1" source="lwDV_UlZ-yNqxNRpLu6u-112" target="lwDV_UlZ-yNqxNRpLu6u-113">
            <mxGeometry x="0.3" y="104" relative="1" as="geometry">
              <mxPoint as="offset" />
              <mxPoint x="1430" y="1198" as="sourcePoint" />
              <mxPoint x="1526" y="1145" as="targetPoint" />
            </mxGeometry>
          </mxCell>
        </object>
        <mxCell id="lwDV_UlZ-yNqxNRpLu6u-117" value="" style="endArrow=classic;html=1;rounded=0;edgeStyle=orthogonalEdgeStyle;" edge="1" parent="WIyWlLk6GJQsqaUBKTNV-1" source="lwDV_UlZ-yNqxNRpLu6u-113" target="lwDV_UlZ-yNqxNRpLu6u-118">
          <mxGeometry width="50" height="50" relative="1" as="geometry">
            <mxPoint x="1430" y="1053" as="sourcePoint" />
            <mxPoint x="1511" y="1205" as="targetPoint" />
            <Array as="points" />
          </mxGeometry>
        </mxCell>
        <mxCell id="lwDV_UlZ-yNqxNRpLu6u-118" value="Cerrar SesiÃ³n" style="rounded=0;whiteSpace=wrap;html=1;" vertex="1" parent="WIyWlLk6GJQsqaUBKTNV-1">
          <mxGeometry x="1119" y="1020" width="120" height="60" as="geometry" />
        </mxCell>
        <mxCell id="lwDV_UlZ-yNqxNRpLu6u-119" value="" style="endArrow=classic;html=1;rounded=0;edgeStyle=orthogonalEdgeStyle;" edge="1" parent="WIyWlLk6GJQsqaUBKTNV-1" source="lwDV_UlZ-yNqxNRpLu6u-118" target="lwDV_UlZ-yNqxNRpLu6u-112">
          <mxGeometry width="50" height="50" relative="1" as="geometry">
            <mxPoint x="1475" y="1096" as="sourcePoint" />
            <mxPoint x="1327" y="1144" as="targetPoint" />
            <Array as="points">
              <mxPoint x="1182" y="888" />
            </Array>
          </mxGeometry>
        </mxCell>
        <mxCell id="lwDV_UlZ-yNqxNRpLu6u-120" value="" style="endArrow=classic;html=1;rounded=0;exitX=0.75;exitY=0;exitDx=0;exitDy=0;" edge="1" parent="WIyWlLk6GJQsqaUBKTNV-1" source="lwDV_UlZ-yNqxNRpLu6u-113" target="lwDV_UlZ-yNqxNRpLu6u-121">
          <mxGeometry width="50" height="50" relative="1" as="geometry">
            <mxPoint x="1563" y="837" as="sourcePoint" />
            <mxPoint x="1673.3198994974873" y="906.5" as="targetPoint" />
          </mxGeometry>
        </mxCell>
        <mxCell id="lwDV_UlZ-yNqxNRpLu6u-121" value="Informacion personal" style="rounded=0;whiteSpace=wrap;html=1;" vertex="1" parent="WIyWlLk6GJQsqaUBKTNV-1">
          <mxGeometry x="1508" y="802" width="120" height="60" as="geometry" />
        </mxCell>
        <mxCell id="lwDV_UlZ-yNqxNRpLu6u-122" value="Editar" style="rounded=1;whiteSpace=wrap;html=1;" vertex="1" parent="WIyWlLk6GJQsqaUBKTNV-1">
          <mxGeometry x="1686" y="742" width="120" height="60" as="geometry" />
        </mxCell>
        <mxCell id="lwDV_UlZ-yNqxNRpLu6u-123" value="Volver" style="rounded=1;whiteSpace=wrap;html=1;" vertex="1" parent="WIyWlLk6GJQsqaUBKTNV-1">
          <mxGeometry x="1680" y="844" width="120" height="60" as="geometry" />
        </mxCell>
        <mxCell id="lwDV_UlZ-yNqxNRpLu6u-124" value="" style="endArrow=classic;html=1;rounded=0;entryX=0.008;entryY=0.58;entryDx=0;entryDy=0;entryPerimeter=0;" edge="1" parent="WIyWlLk6GJQsqaUBKTNV-1" source="lwDV_UlZ-yNqxNRpLu6u-121" target="lwDV_UlZ-yNqxNRpLu6u-122">
          <mxGeometry width="50" height="50" relative="1" as="geometry">
            <mxPoint x="1760" y="835" as="sourcePoint" />
            <mxPoint x="1904.94" y="893" as="targetPoint" />
          </mxGeometry>
        </mxCell>
        <mxCell id="lwDV_UlZ-yNqxNRpLu6u-125" value="" style="endArrow=classic;html=1;rounded=0;exitX=1;exitY=0.75;exitDx=0;exitDy=0;" edge="1" parent="WIyWlLk6GJQsqaUBKTNV-1" source="lwDV_UlZ-yNqxNRpLu6u-121" target="lwDV_UlZ-yNqxNRpLu6u-123">
          <mxGeometry width="50" height="50" relative="1" as="geometry">
            <mxPoint x="1768.94" y="1116" as="sourcePoint" />
            <mxPoint x="1828.94" y="1092" as="targetPoint" />
          </mxGeometry>
        </mxCell>
        <mxCell id="lwDV_UlZ-yNqxNRpLu6u-140" value="" style="endArrow=classic;html=1;rounded=0;entryX=0.25;entryY=0;entryDx=0;entryDy=0;exitX=0.797;exitY=0.983;exitDx=0;exitDy=0;exitPerimeter=0;" edge="1" parent="WIyWlLk6GJQsqaUBKTNV-1" source="lwDV_UlZ-yNqxNRpLu6u-113" target="lwDV_UlZ-yNqxNRpLu6u-141">
          <mxGeometry width="50" height="50" relative="1" as="geometry">
            <mxPoint x="1485" y="1175" as="sourcePoint" />
            <mxPoint x="1488" y="1323" as="targetPoint" />
          </mxGeometry>
        </mxCell>
        <mxCell id="lwDV_UlZ-yNqxNRpLu6u-141" value="Rutina" style="rounded=0;whiteSpace=wrap;html=1;" vertex="1" parent="WIyWlLk6GJQsqaUBKTNV-1">
          <mxGeometry x="1490" y="1217.5" width="120" height="60" as="geometry" />
        </mxCell>
        <mxCell id="lwDV_UlZ-yNqxNRpLu6u-148" value="Registrar progreso" style="rounded=1;whiteSpace=wrap;html=1;" vertex="1" parent="WIyWlLk6GJQsqaUBKTNV-1">
          <mxGeometry x="1677" y="1231" width="120" height="60" as="geometry" />
        </mxCell>
        <mxCell id="lwDV_UlZ-yNqxNRpLu6u-151" value="" style="endArrow=classic;html=1;rounded=0;exitX=1;exitY=0.5;exitDx=0;exitDy=0;" edge="1" parent="WIyWlLk6GJQsqaUBKTNV-1" source="lwDV_UlZ-yNqxNRpLu6u-141" target="lwDV_UlZ-yNqxNRpLu6u-148">
          <mxGeometry width="50" height="50" relative="1" as="geometry">
            <mxPoint x="1587" y="1244" as="sourcePoint" />
            <mxPoint x="1588" y="1398" as="targetPoint" />
          </mxGeometry>
        </mxCell>
        <mxCell id="lwDV_UlZ-yNqxNRpLu6u-153" value="Progreso" style="rounded=0;whiteSpace=wrap;html=1;" vertex="1" parent="WIyWlLk6GJQsqaUBKTNV-1">
          <mxGeometry x="1151" y="1209" width="120" height="60" as="geometry" />
        </mxCell>
        <mxCell id="eSVJCQRRHsXEp4kIx0E7-0" style="edgeStyle=orthogonalEdgeStyle;rounded=0;orthogonalLoop=1;jettySize=auto;html=1;entryX=0.5;entryY=1;entryDx=0;entryDy=0;" edge="1" parent="WIyWlLk6GJQsqaUBKTNV-1" source="lwDV_UlZ-yNqxNRpLu6u-154" target="lwDV_UlZ-yNqxNRpLu6u-113">
          <mxGeometry relative="1" as="geometry">
            <Array as="points">
              <mxPoint x="1394" y="1381" />
            </Array>
          </mxGeometry>
        </mxCell>
        <mxCell id="lwDV_UlZ-yNqxNRpLu6u-154" value="Volver" style="rounded=1;whiteSpace=wrap;html=1;" vertex="1" parent="WIyWlLk6GJQsqaUBKTNV-1">
          <mxGeometry x="1151" y="1340" width="120" height="60" as="geometry" />
        </mxCell>
        <mxCell id="lwDV_UlZ-yNqxNRpLu6u-155" value="" style="endArrow=classic;html=1;rounded=0;entryX=0.5;entryY=0;entryDx=0;entryDy=0;exitX=0.5;exitY=1;exitDx=0;exitDy=0;" edge="1" parent="WIyWlLk6GJQsqaUBKTNV-1" source="lwDV_UlZ-yNqxNRpLu6u-153" target="lwDV_UlZ-yNqxNRpLu6u-154">
          <mxGeometry width="50" height="50" relative="1" as="geometry">
            <mxPoint x="1064.6769971415679" y="1222.5" as="sourcePoint" />
            <mxPoint x="1066.3230028584326" y="1295.44" as="targetPoint" />
          </mxGeometry>
        </mxCell>
        <mxCell id="lwDV_UlZ-yNqxNRpLu6u-156" value="" style="endArrow=classic;html=1;rounded=0;entryX=0.5;entryY=0;entryDx=0;entryDy=0;exitX=0.25;exitY=1;exitDx=0;exitDy=0;" edge="1" parent="WIyWlLk6GJQsqaUBKTNV-1" source="lwDV_UlZ-yNqxNRpLu6u-113" target="lwDV_UlZ-yNqxNRpLu6u-153">
          <mxGeometry width="50" height="50" relative="1" as="geometry">
            <mxPoint x="1416.2599999999998" y="1110.9979999999998" as="sourcePoint" />
            <mxPoint x="1732.06" y="1311.61" as="targetPoint" />
          </mxGeometry>
        </mxCell>
        <mxCell id="lwDV_UlZ-yNqxNRpLu6u-158" value="" style="endArrow=classic;html=1;rounded=0;entryX=1;entryY=0.18;entryDx=0;entryDy=0;entryPerimeter=0;" edge="1" parent="WIyWlLk6GJQsqaUBKTNV-1" source="lwDV_UlZ-yNqxNRpLu6u-123" target="lwDV_UlZ-yNqxNRpLu6u-113">
          <mxGeometry width="50" height="50" relative="1" as="geometry">
            <mxPoint x="1697" y="963" as="sourcePoint" />
            <mxPoint x="1756" y="936" as="targetPoint" />
          </mxGeometry>
        </mxCell>
        <mxCell id="lwDV_UlZ-yNqxNRpLu6u-160" value="" style="endArrow=classic;html=1;rounded=0;exitX=1;exitY=0.413;exitDx=0;exitDy=0;entryX=0;entryY=0.5;entryDx=0;entryDy=0;exitPerimeter=0;" edge="1" parent="WIyWlLk6GJQsqaUBKTNV-1" source="lwDV_UlZ-yNqxNRpLu6u-113" target="lwDV_UlZ-yNqxNRpLu6u-161">
          <mxGeometry width="50" height="50" relative="1" as="geometry">
            <mxPoint x="1742" y="1199" as="sourcePoint" />
            <mxPoint x="1971.3198994974873" y="1117.5" as="targetPoint" />
          </mxGeometry>
        </mxCell>
        <mxCell id="lwDV_UlZ-yNqxNRpLu6u-161" value="Temporizador" style="rounded=0;whiteSpace=wrap;html=1;" vertex="1" parent="WIyWlLk6GJQsqaUBKTNV-1">
          <mxGeometry x="1683" y="964" width="120" height="60" as="geometry" />
        </mxCell>
        <mxCell id="lwDV_UlZ-yNqxNRpLu6u-162" value="Inicicar/Finalizar" style="rounded=1;whiteSpace=wrap;html=1;" vertex="1" parent="WIyWlLk6GJQsqaUBKTNV-1">
          <mxGeometry x="1910" y="945" width="120" height="60" as="geometry" />
        </mxCell>
        <mxCell id="lwDV_UlZ-yNqxNRpLu6u-163" value="Volver" style="rounded=1;whiteSpace=wrap;html=1;" vertex="1" parent="WIyWlLk6GJQsqaUBKTNV-1">
          <mxGeometry x="1904" y="1047" width="120" height="60" as="geometry" />
        </mxCell>
        <mxCell id="lwDV_UlZ-yNqxNRpLu6u-164" value="" style="endArrow=classic;html=1;rounded=0;entryX=0.008;entryY=0.58;entryDx=0;entryDy=0;entryPerimeter=0;" edge="1" parent="WIyWlLk6GJQsqaUBKTNV-1" source="lwDV_UlZ-yNqxNRpLu6u-161" target="lwDV_UlZ-yNqxNRpLu6u-162">
          <mxGeometry width="50" height="50" relative="1" as="geometry">
            <mxPoint x="2138" y="1087" as="sourcePoint" />
            <mxPoint x="2282.94" y="1145" as="targetPoint" />
          </mxGeometry>
        </mxCell>
        <mxCell id="lwDV_UlZ-yNqxNRpLu6u-165" value="" style="endArrow=classic;html=1;rounded=0;exitX=1;exitY=0.75;exitDx=0;exitDy=0;" edge="1" parent="WIyWlLk6GJQsqaUBKTNV-1" source="lwDV_UlZ-yNqxNRpLu6u-161" target="lwDV_UlZ-yNqxNRpLu6u-163">
          <mxGeometry width="50" height="50" relative="1" as="geometry">
            <mxPoint x="2146.94" y="1368" as="sourcePoint" />
            <mxPoint x="2206.94" y="1344" as="targetPoint" />
          </mxGeometry>
        </mxCell>
        <mxCell id="lwDV_UlZ-yNqxNRpLu6u-166" value="" style="endArrow=classic;html=1;rounded=0;entryX=0.989;entryY=0.637;entryDx=0;entryDy=0;entryPerimeter=0;" edge="1" parent="WIyWlLk6GJQsqaUBKTNV-1" source="lwDV_UlZ-yNqxNRpLu6u-163" target="lwDV_UlZ-yNqxNRpLu6u-113">
          <mxGeometry width="50" height="50" relative="1" as="geometry">
            <mxPoint x="1995" y="1174" as="sourcePoint" />
            <mxPoint x="1792" y="1221" as="targetPoint" />
          </mxGeometry>
        </mxCell>
      </root>
    </mxGraphModel>
  </diagram>
</mxfile>
